<?xml version="1.0" standalone="no"?>
<!DOCTYPE svg PUBLIC "-//W3C//DTD SVG 20010904//EN"
 "http://www.w3.org/TR/2001/REC-SVG-20010904/DTD/svg10.dtd">
<svg version="1.0" xmlns="http://www.w3.org/2000/svg"
 width="1024.000000pt" height="1024.000000pt" viewBox="0 0 1024.000000 1024.000000"
 preserveAspectRatio="xMidYMid meet">

<g transform="translate(0.000000,1024.000000) scale(0.100000,-0.100000)"
fill="#000000" stroke="none">
<path d="M6114 6363 c-16 -27 -6 -53 21 -53 18 0 22 4 18 20 -3 11 -11 20 -19
20 -8 0 -11 6 -8 15 8 20 1 19 -12 -2z"/>
<path d="M6059 6334 c-12 -20 -22 -43 -22 -50 0 -8 -4 -14 -9 -14 -4 0 -8 -16
-8 -35 0 -19 5 -35 11 -35 5 0 7 -4 4 -10 -3 -5 -2 -10 4 -10 11 0 9 39 -3 58
-4 7 -2 19 4 27 7 8 9 15 5 15 -4 0 -2 7 5 15 7 9 19 14 27 11 7 -3 13 -2 14
2 0 4 2 19 4 35 5 37 -9 34 -36 -9z"/>
<path d="M6136 6283 c-4 -9 -2 -21 4 -27 7 -7 10 -4 10 10 0 16 2 17 10 4 11
-17 13 -10 4 14 -8 21 -20 20 -28 -1z"/>
<path d="M5791 6201 c-64 -90 -77 -175 -36 -231 46 -62 53 -59 54 22 0 120 2
148 13 154 7 5 9 -31 6 -112 l-5 -119 29 35 c35 43 50 94 39 140 -10 44 -58
140 -70 140 -6 0 -19 -13 -30 -29z m69 -82 c-7 -11 -14 -18 -17 -15 -8 8 5 36
17 36 7 0 7 -6 0 -21z m-84 -66 c20 -26 17 -35 -6 -21 -11 7 -20 18 -20 25 0
18 10 16 26 -4z"/>
<path d="M6111 6225 c1 -19 18 -51 18 -35 0 8 -4 22 -9 30 -5 8 -9 11 -9 5z"/>
<path d="M6060 6202 c0 -5 -2 -16 -5 -24 -3 -7 2 -22 10 -33 15 -19 15 -18 10
19 -5 37 -15 62 -15 38z"/>
<path d="M6113 6163 c-7 -2 -13 -11 -13 -19 0 -12 4 -12 20 -2 31 20 26 35 -7
21z"/>
<path d="M7430 6141 c0 -5 -3 -16 -6 -25 -4 -11 -1 -16 10 -16 9 0 16 -5 16
-11 0 -5 -4 -7 -10 -4 -5 3 -7 0 -4 -9 3 -8 11 -13 18 -10 19 7 15 36 -5 41
-11 3 -15 11 -12 24 3 10 3 19 -1 19 -3 0 -6 -4 -6 -9z"/>
<path d="M5404 6025 c9 -126 30 -204 61 -232 32 -28 131 -65 167 -61 l29 3
-84 125 c-45 69 -93 143 -106 165 -22 36 -22 38 -3 20 18 -18 85 -111 178
-247 39 -58 44 -50 44 72 0 85 -1 91 -31 124 -37 43 -116 89 -188 110 -30 9
-59 16 -64 16 -6 0 -7 -37 -3 -95z m149 -30 c-3 -8 -9 -15 -14 -15 -10 0 -12
24 -3 33 11 11 24 -3 17 -18z m-40 -102 c-7 -2 -21 -2 -30 0 -10 3 -4 5 12 5
17 0 24 -2 18 -5z m-13 -53 c0 -5 -2 -10 -4 -10 -3 0 -8 5 -11 10 -3 6 -1 10
4 10 6 0 11 -4 11 -10z m30 0 c0 -5 -2 -10 -4 -10 -3 0 -8 5 -11 10 -3 6 -1
10 4 10 6 0 11 -4 11 -10z m75 -39 c3 -5 2 -12 -3 -15 -13 -8 -53 5 -46 15 7
12 41 12 49 0z"/>
<path d="M6153 6090 c-51 -21 -230 -147 -281 -199 -106 -107 -180 -224 -217
-343 l-18 -57 32 -37 c24 -26 31 -42 26 -58 -12 -39 -21 -137 -14 -142 4 -2
23 11 43 30 l36 33 0 122 c0 172 30 256 142 399 46 57 161 166 248 234 37 29
38 32 3 18z"/>
<path d="M7147 6003 c-27 -30 -67 -126 -67 -161 0 -37 12 -63 47 -106 l24 -29
-1 84 c-1 46 2 103 6 127 l7 42 14 -27 c12 -22 12 -35 3 -63 -6 -19 -10 -62
-8 -95 l3 -60 33 45 c41 56 41 96 3 175 -43 87 -45 89 -64 68z m-7 -169 c0 -8
-4 -14 -10 -14 -5 0 -10 2 -10 4 0 2 -3 12 -6 20 -5 12 -2 15 10 10 9 -3 16
-12 16 -20z"/>
<path d="M7645 5990 c-3 -5 1 -10 10 -10 9 0 13 5 10 10 -3 6 -8 10 -10 10 -2
0 -7 -4 -10 -10z"/>
<path d="M7352 5966 c16 -31 18 -32 18 -4 0 15 -6 25 -14 25 -12 0 -13 -5 -4
-21z"/>
<path d="M7604 5953 l-17 -28 27 18 c14 10 31 15 36 12 6 -3 10 -2 10 3 0 8
-22 22 -35 22 -1 0 -11 -12 -21 -27z"/>
<path d="M6125 5946 c-16 -8 -48 -30 -69 -49 l-40 -34 140 -7 c149 -7 194 -13
194 -27 0 -5 -13 -9 -29 -9 -25 0 -28 -3 -23 -22 5 -20 4 -21 -11 -9 -9 7 -14
17 -12 21 7 11 -53 18 -171 23 l-92 3 16 -24 c24 -36 100 -91 137 -98 19 -3
51 -1 72 6 44 14 193 100 193 112 0 9 -84 65 -147 97 -57 28 -120 35 -158 17z
m93 -59 c8 -10 5 -13 -14 -15 -15 -1 -24 3 -24 13 0 18 24 20 38 2z m72 -6 c0
-14 -18 -23 -31 -15 -8 4 -7 9 2 15 18 11 29 11 29 0z m-149 -84 c-1 -12 -15
-9 -19 4 -3 6 1 10 8 8 6 -3 11 -8 11 -12z"/>
<path d="M7630 5940 c0 -6 7 -10 15 -10 8 0 15 2 15 4 0 2 -7 6 -15 10 -8 3
-15 1 -15 -4z"/>
<path d="M6770 5863 c0 -68 18 -159 42 -215 17 -40 29 -52 72 -72 52 -25 126
-44 126 -31 0 3 -35 59 -79 124 -85 126 -116 181 -104 181 5 0 19 -17 33 -38
18 -28 25 -33 28 -19 4 20 17 22 28 5 4 -6 0 -16 -9 -23 -15 -11 -12 -18 26
-71 64 -91 95 -129 101 -123 11 10 8 156 -3 177 -23 43 -103 101 -169 123 -37
12 -73 24 -79 27 -9 3 -13 -10 -13 -45z m85 -113 c3 -5 1 -10 -4 -10 -6 0 -11
5 -11 10 0 6 2 10 4 10 3 0 8 -4 11 -10z m34 -56 c2 -2 -8 -4 -22 -4 -15 0
-30 0 -34 -1 -4 0 -9 4 -11 10 -3 10 55 5 67 -5z m1 -40 c0 -2 -9 -4 -20 -4
-11 0 -20 4 -20 9 0 5 9 7 20 4 11 -3 20 -7 20 -9z m70 -44 c0 -5 -14 -10 -31
-10 -17 0 -28 4 -24 10 3 6 17 10 31 10 13 0 24 -4 24 -10z"/>
<path d="M7335 5786 c-64 -43 -129 -97 -157 -128 -67 -79 -141 -196 -167 -267
-23 -59 -41 -80 -41 -43 1 9 7 34 14 55 l14 37 -39 0 -39 0 0 -176 c0 -160 1
-175 16 -163 31 25 71 95 114 194 78 184 100 228 144 289 50 69 159 184 226
239 74 60 32 42 -85 -37z"/>
<path d="M7413 5716 c-28 -20 -54 -40 -57 -44 -7 -11 66 -22 144 -22 42 0 59
4 64 15 7 20 36 19 36 0 0 -9 12 -18 30 -22 39 -7 49 -23 15 -23 -18 0 -29 -6
-32 -20 -7 -25 -23 -26 -30 -1 -5 21 -37 27 -175 34 -77 3 -78 -3 -7 -68 42
-37 42 -37 113 -33 70 5 124 25 189 70 35 25 30 31 -74 93 -109 64 -147 68
-216 21z m119 -34 c4 -14 -1 -18 -23 -20 -33 -3 -37 5 -11 24 23 18 29 17 34
-4z m-64 -80 c2 -7 -3 -12 -12 -12 -9 0 -16 7 -16 16 0 17 22 14 28 -4z"/>
<path d="M3942 5633 l-84 -4 5 -184 5 -184 -34 35 c-57 56 -89 68 -184 69 -71
0 -94 -4 -141 -26 -71 -33 -125 -87 -158 -158 -24 -52 -26 -66 -26 -191 0
-129 1 -137 29 -190 31 -60 84 -122 98 -114 4 3 8 1 8 -5 0 -30 170 -68 250
-56 52 8 71 17 121 56 20 16 40 29 43 29 3 0 6 -16 6 -35 l0 -35 93 0 94 0 6
227 c4 124 7 344 7 488 0 268 -3 288 -39 283 -9 -1 -53 -4 -99 -5z m20 -239
c-5 -123 -12 -137 -12 -23 0 49 -5 90 -11 96 -13 13 -2 36 14 30 8 -2 11 -34
9 -103z m-496 -141 c-10 -10 -19 5 -10 18 6 11 8 11 12 0 2 -7 1 -15 -2 -18z
m104 8 c0 -5 -9 -19 -21 -32 l-20 -24 17 33 c19 33 24 38 24 23z m350 -114 c0
-83 -4 -108 -19 -134 -11 -17 -25 -50 -31 -72 -13 -50 -58 -103 -104 -125 -53
-25 -105 -20 -159 14 -39 24 -53 43 -82 104 -20 41 -42 80 -50 86 -16 14 -20
86 -6 109 5 8 7 -4 4 -32 -4 -36 -1 -54 15 -79 l21 -32 5 27 c3 15 8 38 11 52
9 41 94 121 137 129 89 16 176 -40 208 -133 17 -50 19 -52 30 -32 7 14 10 60
8 126 -2 57 0 101 5 98 4 -2 7 -50 7 -106z m37 -64 c-2 -21 -4 -6 -4 32 0 39
2 55 4 38 2 -18 2 -50 0 -70z m-497 -186 c0 -12 0 -11 -24 28 l-17 30 20 -24
c12 -13 21 -28 21 -34z m485 34 c-3 -6 -11 -11 -16 -11 -5 0 -4 6 3 14 14 16
24 13 13 -3z m-530 -30 c3 -5 1 -12 -5 -16 -5 -3 -10 0 -11 7 0 7 -4 4 -9 -7
-8 -19 -9 -19 -9 3 -1 22 22 31 34 13z m52 -113 c-2 -13 -4 -3 -4 22 0 25 2
35 4 23 2 -13 2 -33 0 -45z m87 17 c3 -8 1 -15 -4 -15 -6 0 -10 7 -10 15 0 8
2 15 4 15 2 0 6 -7 10 -15z m158 -47 c-7 -7 -12 -8 -12 -2 0 6 3 14 7 17 3 4
9 5 12 2 2 -3 -1 -11 -7 -17z m68 -2 c0 -2 -8 -10 -17 -17 -16 -13 -17 -12 -4
4 13 16 21 21 21 13z"/>
<path d="M5550 5461 c0 -94 -4 -171 -9 -171 -4 0 -19 9 -32 19 -48 37 -102 53
-181 54 -133 1 -238 -67 -297 -193 -37 -78 -42 -222 -12 -312 53 -157 159
-232 326 -232 93 0 134 15 195 70 54 49 70 82 70 142 0 64 -30 165 -40 137 -4
-11 -5 -46 -2 -77 l5 -56 -54 -58 c-56 -59 -163 -144 -182 -144 -6 0 10 13 36
29 25 17 78 61 117 99 66 65 70 72 70 113 -1 38 -2 41 -12 24 -35 -64 -91 -98
-163 -98 -62 0 -105 21 -142 70 l-28 37 -6 -60 -6 -59 -1 69 c-2 68 -3 70 -47
110 l-45 42 0 104 c0 57 3 100 6 97 4 -3 6 -49 5 -101 l-2 -94 33 -31 c38 -36
53 -39 45 -11 -3 11 -1 39 5 62 21 95 103 165 183 155 71 -8 133 -50 160 -111
l24 -51 1 65 c1 36 2 80 2 98 1 37 8 45 28 31 12 -8 12 -12 3 -16 -8 -3 -13
-22 -13 -46 1 -35 2 -39 11 -24 6 10 9 27 6 38 -3 10 -1 19 4 19 5 0 9 14 9
31 0 17 5 40 11 51 7 12 17 46 24 76 12 51 12 55 -11 80 -31 35 -39 23 -54
-85 -7 -46 -17 -83 -22 -83 -18 0 2 142 35 242 17 54 29 99 27 102 -3 2 -22 7
-42 11 l-38 7 0 -171z m-282 -199 c2 -13 -5 -25 -20 -33 -21 -11 -22 -11 -9 5
12 14 12 19 2 26 -16 9 -5 33 12 27 7 -2 13 -13 15 -25z m232 18 c0 -5 -9 -10
-20 -10 -11 0 -20 5 -20 10 0 6 9 10 20 10 11 0 20 -4 20 -10z m-348 -52 c-9
-9 -15 -9 -23 -1 -7 7 -9 20 -5 29 6 16 8 16 23 1 13 -13 15 -19 5 -29z m278
32 c0 -5 -5 -10 -11 -10 -5 0 -7 5 -4 10 3 6 8 10 11 10 2 0 4 -4 4 -10z
m-103 -6 c-3 -3 -12 -4 -19 -1 -8 3 -5 6 6 6 11 1 17 -2 13 -5z m168 -14 c3
-5 2 -10 -4 -10 -5 0 -13 5 -16 10 -3 6 -2 10 4 10 5 0 13 -4 16 -10z m41 -27
c-7 -7 -26 7 -26 19 0 6 6 6 15 -2 9 -7 13 -15 11 -17z m-453 -13 c-3 -12 -8
-19 -11 -16 -5 6 5 36 12 36 2 0 2 -9 -1 -20z m-13 -46 c0 -20 -7 -17 -20 6
-9 16 -8 18 5 14 8 -4 15 -12 15 -20z m101 -18 c-9 -18 -18 -29 -19 -24 -4 8
24 58 32 58 2 0 -4 -15 -13 -34z m-104 -58 c-3 -7 -5 -2 -5 12 0 14 2 19 5 13
2 -7 2 -19 0 -25z m95 -22 c2 -19 0 -32 -4 -30 -8 5 -12 64 -4 64 2 0 6 -15 8
-34z m-44 -102 c23 -23 42 -50 42 -60 0 -13 -6 -8 -17 14 -9 18 -24 37 -34 42
-34 19 -49 42 -48 73 l1 32 7 -30 c4 -16 26 -49 49 -71z m2 -78 c0 -6 -7 -2
-15 8 -8 11 -15 25 -15 30 0 6 7 2 15 -8 8 -11 15 -25 15 -30z m47 -163 c-2
-21 -4 -4 -4 37 0 41 2 58 4 38 2 -21 2 -55 0 -75z m264 64 c-10 -9 -11 -8 -5
6 3 10 9 15 12 12 3 -3 0 -11 -7 -18z m-104 -19 c-3 -7 -5 -2 -5 12 0 14 2 19
5 13 2 -7 2 -19 0 -25z m-30 -80 c-2 -13 -4 -3 -4 22 0 25 2 35 4 23 2 -13 2
-33 0 -45z m-50 15 c-3 -10 -5 -4 -5 12 0 17 2 24 5 18 2 -7 2 -21 0 -30z"/>
<path d="M1980 5584 c-137 -22 -217 -56 -297 -128 -113 -102 -159 -216 -151
-377 3 -58 10 -104 18 -114 7 -8 10 -15 6 -15 -13 0 24 -58 40 -64 13 -5 14
-10 6 -18 -8 -8 -3 -22 18 -54 84 -122 235 -194 406 -194 125 0 217 33 328
118 l58 45 -73 67 -74 68 -30 -28 c-44 -41 -110 -71 -170 -77 -50 -5 -147 11
-170 28 -93 73 -131 136 -141 235 -21 204 157 362 355 314 31 -7 75 -30 111
-55 l58 -44 61 68 60 68 -37 36 c-82 78 -272 138 -382 121z m-243 -474 c-1
-22 -17 -28 -17 -7 0 12 9 27 16 27 2 0 2 -9 1 -20z m-103 -66 c3 -8 2 -12 -4
-9 -6 3 -10 10 -10 16 0 14 7 11 14 -7z m27 -7 c-10 -9 -11 -8 -5 6 3 10 9 15
12 12 3 -3 0 -11 -7 -18z m102 -88 c-6 -6 -17 -8 -24 -3 -9 5 -8 9 7 14 23 9
31 3 17 -11z m-9 -228 c-2 -3 -12 3 -22 13 -16 17 -16 18 5 5 12 -7 20 -15 17
-18z m503 12 c3 -7 -4 -9 -16 -6 -12 3 -18 9 -15 15 7 11 26 6 31 -9z"/>
<path d="M5950 5458 l0 -108 38 -1 c20 0 67 -8 104 -18 l67 -17 3 45 3 46 140
0 c121 0 144 -3 172 -19 61 -37 66 -125 11 -171 -16 -14 -36 -25 -44 -25 -29
0 -12 -17 64 -63 84 -51 169 -87 204 -87 21 0 20 1 -7 30 -16 16 -37 32 -47
36 -26 8 -23 21 20 69 21 24 47 68 57 98 16 49 17 60 5 103 -19 67 -87 135
-164 163 -55 20 -79 22 -343 24 l-283 2 0 -107z"/>
<path d="M2766 5512 c-10 -29 4 -52 30 -52 17 0 24 -6 24 -20 0 -16 7 -20 35
-20 31 0 35 3 35 25 0 20 5 25 26 25 22 0 25 4 22 28 -3 27 -4 27 -85 30 -73
2 -82 1 -87 -16z"/>
<path d="M8328 5480 c5 -34 8 -35 14 -5 1 11 8 23 13 27 6 4 1 8 -11 8 -17 0
-20 -5 -16 -30z"/>
<path d="M2540 5471 c-37 -19 -80 -88 -80 -127 0 -13 5 -34 11 -48 l12 -25 62
57 c35 32 84 68 109 81 51 25 50 38 -5 67 -37 19 -67 18 -109 -5z"/>
<path d="M3060 5483 c-8 -3 -25 -15 -37 -26 l-23 -20 49 -28 c26 -15 73 -50
103 -78 31 -28 58 -51 61 -51 13 0 25 71 17 105 -17 76 -100 124 -170 98z"/>
<path d="M8332 5410 c0 -19 2 -27 5 -17 2 9 2 25 0 35 -3 9 -5 1 -5 -18z"/>
<path d="M2725 5383 c-102 -37 -174 -103 -231 -213 -26 -50 -29 -64 -29 -160
0 -93 3 -111 27 -163 97 -207 330 -288 537 -186 83 41 145 103 184 187 29 61
32 76 32 162 0 86 -3 101 -31 160 -38 81 -108 151 -191 192 -54 26 -77 31
-156 35 -71 3 -103 0 -142 -14z m254 -65 c67 -25 137 -89 177 -160 26 -48 29
-62 29 -148 0 -86 -3 -101 -30 -154 -34 -68 -88 -118 -165 -155 -46 -22 -69
-26 -140 -26 -109 0 -169 26 -240 101 -72 76 -94 130 -94 229 0 99 29 171 99
240 98 99 226 124 364 73z"/>
<path d="M2834 5305 c-8 -19 2 -45 16 -45 5 0 10 14 10 30 0 31 -16 41 -26 15z"/>
<path d="M2981 5261 c-6 -11 -11 -27 -11 -37 0 -16 1 -16 20 1 21 19 26 40 11
50 -6 3 -15 -3 -20 -14z"/>
<path d="M2695 5261 c-7 -13 12 -51 25 -51 6 0 10 8 10 19 0 23 -25 46 -35 32z"/>
<path d="M2587 5163 c-12 -11 -8 -22 14 -34 31 -16 50 5 23 26 -22 16 -28 18
-37 8z"/>
<path d="M2848 5163 c-10 -3 -18 -11 -18 -18 0 -8 -12 -20 -27 -27 -60 -29
-39 -110 32 -124 46 -8 63 -29 36 -43 -14 -8 -28 -8 -47 -1 -15 6 -33 9 -41 6
-23 -9 -14 -37 17 -49 17 -6 30 -17 30 -24 0 -7 9 -13 20 -13 11 0 20 7 20 15
0 8 6 15 13 15 23 0 47 35 47 68 0 34 -23 55 -73 68 -28 7 -46 29 -33 42 4 3
28 6 53 7 53 0 69 20 29 35 -14 5 -26 16 -26 24 0 18 -10 24 -32 19z"/>
<path d="M3084 5156 c-13 -10 -16 -18 -8 -25 7 -8 16 -7 30 3 13 10 16 18 8
25 -7 8 -16 7 -30 -3z"/>
<path d="M2550 5012 c0 -15 5 -18 25 -14 30 5 28 26 -3 30 -16 3 -22 -2 -22
-16z"/>
<path d="M3110 5013 c0 -7 11 -13 25 -13 15 0 25 6 25 14 0 9 -10 13 -25 12
-14 0 -25 -7 -25 -13z"/>
<path d="M2603 4883 c-7 -2 -13 -11 -13 -20 0 -20 34 -12 38 10 3 17 -3 20
-25 10z"/>
<path d="M3070 4875 c0 -19 36 -39 45 -25 8 13 -13 40 -31 40 -8 0 -14 -7 -14
-15z"/>
<path d="M2713 4793 c-18 -6 -16 -43 1 -43 16 0 30 30 19 40 -4 4 -14 5 -20 3z"/>
<path d="M2970 4771 c0 -22 15 -35 30 -26 7 4 7 13 0 26 -14 25 -30 25 -30 0z"/>
<path d="M2835 4739 c-9 -26 10 -48 26 -32 12 12 3 53 -11 53 -5 0 -12 -9 -15
-21z"/>
<path d="M4440 5348 c-113 -40 -170 -91 -217 -195 -23 -50 -27 -72 -27 -153 0
-77 4 -106 23 -154 61 -153 242 -242 440 -215 62 9 149 48 199 89 29 24 21 42
-44 98 l-47 40 -35 -24 c-72 -49 -187 -56 -255 -17 -36 22 -77 77 -77 104 0
18 14 19 265 19 l265 0 0 43 c0 124 -54 247 -136 309 -62 48 -119 67 -214 74
-62 4 -87 1 -140 -18z m215 -167 c31 -18 75 -84 75 -113 0 -16 -14 -18 -165
-18 -142 0 -165 2 -165 15 0 23 35 87 59 109 42 38 137 42 196 7z"/>
<path d="M7244 5349 c-16 -5 -47 -23 -67 -41 -31 -28 -38 -42 -46 -95 -18
-116 -67 -193 -162 -255 l-50 -32 2 -93 c1 -86 3 -93 18 -78 9 8 29 25 45 37
24 18 27 26 23 55 -5 29 -3 34 11 31 24 -5 17 -34 -19 -87 -43 -61 -30 -61 20
2 35 42 42 58 38 82 -2 16 -1 39 4 50 5 13 8 0 8 -42 1 -37 -4 -67 -12 -75
-45 -47 -67 -83 -66 -106 0 -16 3 -21 6 -12 9 23 41 62 66 79 22 15 22 15 3
-7 -16 -19 -17 -26 -8 -48 15 -32 15 -34 -3 -34 -9 0 -15 9 -15 23 0 20 -4 18
-35 -17 l-35 -40 0 37 c0 66 -42 59 -44 -7 -1 -39 5 -44 49 -40 17 1 58 3 92
3 l62 1 3 208 c3 231 7 248 74 298 27 21 50 29 92 32 l57 4 1 89 1 89 -41 -1
c-23 0 -55 -5 -72 -10z m-159 -379 c3 -6 -1 -13 -10 -16 -19 -8 -30 0 -20 15
8 14 22 14 30 1z m29 -108 c-3 -32 -11 -64 -16 -72 -8 -12 -8 -11 -4 3 3 10 6
46 6 78 0 40 4 58 11 54 6 -5 8 -27 3 -63z m-154 -146 c0 -3 -4 -8 -10 -11 -5
-3 -10 -1 -10 4 0 6 5 11 10 11 6 0 10 -2 10 -4z"/>
<path d="M7392 5352 c1 -5 20 -47 40 -93 20 -46 53 -127 73 -181 45 -121 60
-136 63 -63 1 29 -2 74 -7 100 -11 58 -4 85 20 85 14 0 19 -7 19 -25 0 -14 -5
-25 -11 -25 -7 0 -9 -14 -5 -42 3 -24 6 -83 7 -133 2 -92 22 -157 87 -281 l21
-39 1 96 0 95 -47 40 -48 39 5 94 c4 83 8 95 28 109 20 13 22 13 23 -4 0 -18
1 -18 10 1 8 16 0 43 -34 125 l-43 105 -103 3 c-57 1 -101 -1 -99 -6z m278
-533 c0 -14 -17 -10 -23 5 -4 10 -1 13 9 9 7 -3 14 -9 14 -14z"/>
<path d="M7986 5334 c-4 -10 2 -23 14 -34 20 -17 22 -17 65 7 65 36 64 43 -8
43 -51 0 -66 -4 -71 -16z"/>
<path d="M7075 5259 c-37 -109 -89 -173 -179 -219 -63 -32 -76 -35 -155 -35
-80 0 -92 3 -172 41 -47 23 -129 69 -181 102 -118 75 -253 137 -336 153 -73
14 -164 7 -242 -18 -99 -31 -209 -164 -210 -251 0 -19 9 -65 21 -103 18 -59
19 -75 10 -121 -7 -29 -23 -72 -37 -96 -14 -24 -24 -45 -22 -47 2 -2 19 24 38
58 33 59 35 67 36 162 1 148 21 202 99 274 52 48 93 68 171 82 110 20 208 -13
440 -152 208 -125 245 -140 355 -146 71 -5 100 -2 159 16 135 41 219 156 237
324 3 31 3 57 0 57 -3 0 -18 -36 -32 -81z"/>
<path d="M7960 5269 c-14 -24 -7 -34 16 -25 12 5 14 9 5 20 -6 7 -8 16 -4 19
3 4 3 7 0 7 -3 0 -11 -9 -17 -21z"/>
<path d="M5642 5240 c0 -19 2 -27 5 -17 2 9 2 25 0 35 -3 9 -5 1 -5 -18z"/>
<path d="M7918 5163 c-15 -38 -28 -78 -31 -90 -4 -20 -3 -21 15 -12 11 6 25 8
32 6 16 -6 29 78 19 125 -4 22 -3 29 6 24 6 -4 8 -12 5 -18 -4 -7 -2 -8 5 -4
9 6 9 11 0 22 -19 23 -25 17 -51 -53z"/>
<path d="M5950 4920 c0 -217 3 -280 13 -281 6 0 141 0 300 0 261 1 292 3 340
21 96 36 164 112 181 200 l6 35 -25 -30 c-14 -18 -24 -24 -25 -15 0 8 -15 0
-38 -23 -37 -36 -40 -37 -107 -35 -65 2 -66 2 -15 5 86 5 99 11 117 48 9 19
14 38 10 41 -3 4 -31 12 -62 19 l-56 13 -10 -26 c-31 -88 -60 -97 -307 -94
l-112 2 1 115 1 115 96 0 97 1 -30 24 c-76 63 -267 145 -337 145 l-38 0 0
-280z m143 85 c-6 -18 -19 -19 -29 -4 -7 12 15 31 28 23 4 -3 5 -11 1 -19z
m-6 -222 c-2 -32 -3 -6 -3 57 0 63 1 89 3 58 2 -32 2 -84 0 -115z m54 -20 c-2
-7 -6 -13 -10 -13 -3 0 -4 35 -1 77 l4 78 6 -65 c3 -36 3 -71 1 -77z m23 -17
c-3 -8 -13 -17 -22 -21 -13 -5 -13 -2 3 15 21 24 26 25 19 6z m-164 -12 c0 -8
-4 -12 -10 -9 -5 3 -10 10 -10 16 0 5 5 9 10 9 6 0 10 -7 10 -16z m260 1 c0
-8 -4 -15 -10 -15 -5 0 -7 7 -4 15 4 8 8 15 10 15 2 0 4 -7 4 -15z m184 -6
c-3 -5 -10 -7 -15 -3 -5 3 -7 10 -3 15 3 5 10 7 15 3 5 -3 7 -10 3 -15z m144
14 c-10 -2 -26 -2 -35 0 -10 3 -2 5 17 5 19 0 27 -2 18 -5z m-468 -7 c0 -2 -8
-10 -17 -17 -16 -13 -17 -12 -4 4 13 16 21 21 21 13z m367 -2 c-3 -3 -12 -4
-19 -1 -8 3 -5 6 6 6 11 1 17 -2 13 -5z m-93 -43 c-3 -3 -15 6 -27 18 l-22 24
27 -19 c14 -10 24 -21 22 -23z m142 23 c-3 -9 -6 -20 -6 -25 0 -5 -15 -8 -32
-8 -23 1 -26 3 -11 6 12 2 25 13 28 24 4 10 11 19 17 19 5 0 7 -7 4 -16z
m-345 -31 c13 -15 12 -15 -8 -4 -24 12 -29 21 -14 21 5 0 15 -7 22 -17z"/>
<path d="M8318 5072 c-3 -57 -1 -62 17 -61 11 0 15 3 10 5 -6 2 -9 22 -7 43 2
22 -1 47 -6 57 -8 14 -11 4 -14 -44z"/>
<path d="M5712 5050 c-27 -56 -32 -76 -32 -141 0 -89 -20 -156 -66 -221 l-34
-48 90 0 90 0 -1 163 c-1 89 -5 196 -8 237 l-7 75 -32 -65z"/>
<path d="M7660 5091 c0 -10 26 -9 36 2 4 4 -2 7 -14 7 -12 0 -22 -4 -22 -9z"/>
<path d="M7691 5070 c-8 -4 -20 -6 -27 -3 -6 2 -15 0 -19 -6 -3 -6 -1 -11 5
-11 6 0 10 -8 8 -17 -2 -10 4 -19 15 -21 11 -2 17 3 17 15 0 15 2 16 10 3 8
-12 10 -12 15 2 9 24 -7 49 -24 38z m-11 -40 c0 -5 -5 -10 -11 -10 -5 0 -7 5
-4 10 3 6 8 10 11 10 2 0 4 -4 4 -10z"/>
<path d="M7915 5050 c3 -5 14 -10 23 -10 15 0 15 2 2 10 -20 13 -33 13 -25 0z"/>
<path d="M7961 5044 c0 -11 3 -14 6 -6 3 7 2 16 -1 19 -3 4 -6 -2 -5 -13z"/>
<path d="M7900 5027 c0 -9 -4 -17 -10 -17 -5 0 -10 -4 -10 -10 0 -5 4 -10 9
-10 12 0 25 39 17 47 -3 4 -6 -1 -6 -10z"/>
<path d="M7851 4992 c-12 -23 -3 -36 16 -21 10 9 13 8 13 -1 0 -8 3 -11 6 -7
3 3 -1 15 -9 27 -15 22 -15 22 -26 2z"/>
<path d="M7710 4984 c0 -3 10 -14 23 -24 19 -16 20 -22 10 -39 -8 -13 -9 -22
-3 -26 6 -4 5 -16 -3 -33 -8 -15 -13 -36 -12 -47 1 -11 2 -76 3 -144 3 -175
20 -142 24 46 3 138 5 154 23 167 18 14 18 15 3 16 -13 0 -17 7 -14 23 5 31
-14 67 -36 67 -10 0 -18 -3 -18 -6z"/>
<path d="M7632 4960 c0 -14 2 -19 5 -12 2 6 2 18 0 25 -3 6 -5 1 -5 -13z"/>
<path d="M7691 4949 c-1 -9 2 -18 5 -22 8 -8 34 3 34 15 0 6 -6 8 -14 5 -8 -3
-17 -1 -20 6 -2 7 -5 6 -5 -4z"/>
<path d="M7807 4855 l-39 -33 3 -146 c2 -80 7 -146 11 -146 4 0 8 65 8 144 0
81 4 147 10 151 9 6 54 65 48 65 -2 -1 -20 -16 -41 -35z"/>
<path d="M8317 4866 c-3 -8 0 -22 8 -30 16 -15 20 -31 8 -23 -12 8 -9 -39 2
-50 7 -6 20 -7 34 -1 23 8 23 9 7 27 -10 11 -18 33 -18 51 -1 17 -4 26 -8 19
-6 -8 -10 -6 -17 6 -9 15 -11 15 -16 1z"/>
<path d="M7872 4807 c-20 -21 -22 -34 -22 -133 1 -125 2 -125 62 24 31 77 36
96 25 107 -10 9 -18 10 -32 3 -15 -9 -17 -8 -12 6 9 22 5 20 -21 -7z"/>
<path d="M7816 4794 c-9 -23 -7 -239 1 -230 6 6 12 246 7 246 -1 0 -5 -7 -8
-16z"/>
<path d="M8455 4650 c-3 -5 -1 -10 4 -10 6 0 11 5 11 10 0 6 -2 10 -4 10 -3 0
-8 -4 -11 -10z"/>
<path d="M8508 4633 c6 -2 18 -2 25 0 6 3 1 5 -13 5 -14 0 -19 -2 -12 -5z"/>
<path d="M7693 4595 c0 -22 2 -30 4 -17 2 12 2 30 0 40 -3 9 -5 -1 -4 -23z"/>
<path d="M7463 4567 c0 -7 8 -14 17 -14 9 -1 17 5 17 13 0 8 -8 14 -17 14 -9
0 -17 -6 -17 -13z"/>
<path d="M7638 4568 c-16 -5 -28 -13 -28 -18 0 -7 -38 -22 -65 -25 -5 -1 -25
-5 -43 -9 -22 -5 -38 -4 -47 4 -13 10 -18 6 -30 -23 -8 -20 -15 -39 -15 -42 0
-3 24 -17 53 -31 71 -35 183 -38 242 -6 23 12 33 21 23 22 -10 0 -18 2 -18 4
0 9 27 55 31 52 2 -3 4 7 4 20 0 31 -7 30 -32 -4 -12 -16 -39 -37 -60 -47 -21
-10 -46 -24 -55 -33 -10 -8 -26 -12 -37 -9 -11 3 -22 0 -24 -6 -2 -8 -5 -8
-10 0 -4 6 20 23 61 43 74 35 102 56 102 77 0 8 -14 3 -40 -16 -23 -16 -63
-35 -90 -42 -28 -7 -50 -19 -50 -26 0 -7 -9 -13 -20 -13 -21 0 -27 15 -10 25
6 4 8 11 4 16 -3 5 0 8 8 7 7 -2 12 2 11 7 -1 6 15 10 35 9 44 -1 107 28 122
56 6 11 9 20 8 19 -2 0 -15 -5 -30 -11z"/>
<path d="M7510 4560 c0 -5 5 -10 10 -10 6 0 10 5 10 10 0 6 -4 10 -10 10 -5 0
-10 -4 -10 -10z"/>
<path d="M7548 4553 c7 -3 16 -2 19 1 4 3 -2 6 -13 5 -11 0 -14 -3 -6 -6z"/>
<path d="M3583 4205 c-14 -11 -16 -18 -7 -31 15 -25 29 -27 47 -9 30 30 -5 65
-40 40z"/>
<path d="M4754 4195 c-9 -23 3 -45 24 -45 11 0 25 7 32 15 16 19 -3 45 -32 45
-10 0 -21 -7 -24 -15z"/>
<path d="M3223 4173 c-9 -24 9 -33 68 -33 l59 0 0 -160 c0 -90 4 -160 9 -160
39 0 41 8 41 166 l0 154 60 0 c57 0 60 1 60 25 l0 25 -146 -2 c-103 -2 -148
-7 -151 -15z"/>
<path d="M5601 4060 c-41 -71 -77 -128 -79 -125 -2 2 -36 57 -75 122 -54 88
-78 119 -94 121 l-23 3 0 -175 0 -176 25 0 25 0 0 122 c0 82 3 119 10 112 6
-6 34 -50 63 -100 29 -49 60 -90 69 -92 11 -2 33 28 74 97 32 56 59 99 61 98
1 -2 4 -50 5 -108 1 -57 4 -110 6 -116 2 -7 16 -13 30 -13 l25 0 -6 122 c-4
66 -7 147 -7 180 0 94 -22 80 -109 -72z"/>
<path d="M3813 4085 c-18 -8 -33 -10 -33 -5 0 6 -11 10 -25 10 l-25 0 0 -136
c0 -135 0 -135 23 -132 21 3 22 9 27 101 4 89 7 101 29 118 27 22 49 24 85 7
32 -14 46 -60 46 -150 0 -61 2 -68 20 -68 18 0 20 7 20 70 0 88 17 132 59 149
75 31 111 -14 111 -139 0 -79 0 -80 25 -80 25 0 25 1 25 86 0 60 -5 97 -17
121 -32 67 -127 80 -185 25 -16 -14 -28 -20 -28 -14 0 19 -61 52 -95 52 -16
-1 -45 -7 -62 -15z"/>
<path d="M4934 4086 c-34 -15 -44 -33 -44 -75 0 -38 24 -57 93 -72 65 -14 87
-37 61 -63 -18 -19 -68 -21 -114 -5 -26 9 -34 9 -41 -2 -21 -33 84 -60 152
-40 41 12 59 35 59 74 0 32 -24 51 -90 72 -30 9 -62 24 -70 32 -13 13 -12 17
10 35 24 19 66 20 114 2 11 -4 16 0 16 14 0 23 -10 28 -71 36 -28 4 -55 1 -75
-8z"/>
<path d="M5871 4082 c-93 -51 -93 -194 0 -244 93 -50 219 17 219 117 0 39 -28
94 -60 117 -39 28 -118 33 -159 10z m118 -37 c35 -18 55 -64 47 -108 -9 -49
-39 -72 -93 -72 -60 0 -93 36 -93 100 0 36 5 47 31 69 34 29 67 33 108 11z"/>
<path d="M6248 4082 c-30 -16 -38 -17 -38 -6 0 8 -10 14 -22 14 -23 0 -23 -1
-20 -130 3 -121 4 -130 23 -130 17 0 19 7 19 84 0 75 3 88 24 112 18 22 32 28
61 27 62 -2 77 -26 83 -132 4 -80 7 -91 23 -91 17 0 19 9 19 100 0 95 -1 101
-27 130 -37 40 -94 48 -145 22z"/>
<path d="M6580 4087 c-70 -25 -100 -116 -63 -194 32 -67 142 -92 209 -48 39
26 16 42 -35 25 -46 -15 -87 -7 -118 22 -43 40 -31 47 85 50 l107 3 -3 35 c-8
86 -95 138 -182 107z m112 -57 c45 -45 34 -55 -57 -53 -43 2 -81 5 -83 8 -10
10 19 56 40 65 41 16 69 11 100 -20z"/>
<path d="M3580 3955 l0 -135 25 0 25 0 0 135 0 135 -25 0 -25 0 0 -135z"/>
<path d="M4318 4067 c-36 -30 -48 -58 -48 -108 0 -80 62 -139 147 -139 47 0
111 36 94 53 -8 8 -19 8 -44 -1 -51 -18 -82 -15 -116 14 -55 46 -44 54 79 54
81 0 110 3 110 13 0 36 -24 89 -51 111 -42 35 -131 37 -171 3z m149 -39 c13
-12 23 -30 23 -40 0 -16 -9 -18 -79 -18 -86 0 -101 8 -81 45 26 48 93 55 137
13z"/>
<path d="M4760 3960 l0 -130 25 0 25 0 0 130 0 130 -25 0 -25 0 0 -130z"/>
<path d="M6851 3964 c32 -69 59 -134 59 -144 0 -31 -29 -52 -69 -49 -63 5 -84
-24 -28 -39 43 -12 99 2 117 29 8 12 45 91 82 176 65 151 66 154 41 151 -21
-3 -31 -17 -65 -100 -22 -54 -43 -98 -47 -98 -3 0 -28 45 -55 100 -41 82 -54
100 -72 100 -22 0 -20 -7 37 -126z"/>
</g>
</svg>
